<svg version="1.1" id="Layer_1" xmlns="http://www.w3.org/2000/svg" xmlns:xlink="http://www.w3.org/1999/xlink" x="0px" y="0px"
     width="100%" viewBox="0 0 756 758" enable-background="new 0 0 756 758" xml:space="preserve">
<!-- Green Note Shape -->
<path fill="#4CA34E" opacity="1.000000" stroke="none" 
	d="
M318.064941,627.978149 
	C317.709656,627.675781 317.354340,627.373474 316.865814,626.506714 
	C316.374420,625.699097 316.016296,625.455994 315.658142,625.212830 
	C315.658142,625.212830 315.817383,625.230835 315.738647,624.997314 
	C315.319092,624.604553 314.978302,624.445435 314.637512,624.286255 
	C314.637512,624.286255 314.755127,624.221619 314.713562,623.990845 
	C314.351471,623.564514 314.030914,623.369019 313.710358,623.173523 
	C313.710358,623.173523 313.829041,623.170776 313.841980,622.857849 
	C312.888672,621.701050 311.922455,620.857239 310.956207,620.013367 
	C310.620880,619.683655 310.285553,619.353943 309.918457,618.415161 
	C308.980011,616.871338 308.073303,615.936707 307.166595,615.002075 
	C296.580566,600.737122 292.380096,584.122681 289.603912,566.068787 
	C276.263824,576.587524 262.352295,584.704285 245.087189,586.679810 
	C236.517441,586.252380 228.641525,586.126892 220.765137,586.075623 
	C220.189026,586.071838 219.609421,586.605042 219.031433,586.888611 
	C195.476196,583.577759 178.130539,571.565186 168.558456,549.616272 
	C157.008682,523.132385 156.740387,496.714447 171.061996,470.969299 
	C173.537903,466.518524 176.742249,462.472931 179.044464,459.075073 
	C169.011414,456.418365 158.262787,454.959351 148.709335,450.772949 
	C123.670906,439.800903 105.185547,421.661438 97.310760,395.015167 
	C90.993774,373.640106 96.149940,353.406158 108.523354,335.205383 
	C125.770943,309.834869 149.795654,295.828217 181.437347,293.639679 
	C179.611954,290.898621 178.011902,288.535767 176.451645,286.146973 
	C157.695648,257.430969 154.745758,222.560669 174.563889,193.307602 
	C187.541214,174.152069 206.101624,164.847046 228.996582,163.905746 
	C250.116180,163.037445 269.056274,168.934906 285.438782,182.525085 
	C286.556580,183.452347 287.804443,184.222778 288.963898,185.046295 
	C291.292694,176.443558 292.710785,167.700485 295.989990,159.722427 
	C307.683502,131.273361 327.697296,110.902939 357.605347,102.270386 
	C379.248383,96.023415 398.723572,103.129967 415.922394,116.539551 
	C434.719849,131.195526 451.070312,151.159561 455.741974,185.360413 
	C459.467102,182.556976 462.896210,179.800323 466.498932,177.293152 
	C492.470062,159.219604 533.790894,159.383636 557.030457,178.114883 
	C572.881104,190.890640 580.405579,208.357513 582.686707,228.914093 
	C582.540405,235.751190 582.724182,241.866577 582.907898,247.981949 
	C581.806824,264.720673 575.235779,279.389679 565.207092,293.306549 
	C570.412964,294.233459 575.091248,294.830780 579.653442,295.916168 
	C614.979370,304.320618 639.157227,325.040802 648.043640,360.816559 
	C655.132751,389.356140 644.948303,413.132568 624.205933,432.886139 
	C607.909546,448.405701 588.436279,456.749878 564.969238,457.847778 
	C574.452576,470.591370 580.600037,484.135345 582.649170,499.936981 
	C582.226685,501.767975 582.030334,502.902527 582.024841,504.038025 
	C581.991150,511.027802 582.003235,518.017761 581.994263,525.007629 
	C581.991333,527.331726 581.971252,529.655762 581.958984,531.979858 
	C577.035339,559.119995 559.175842,580.852173 531.047668,587.031494 
	C504.723846,592.814453 481.828430,585.242065 460.726990,569.935364 
	C459.139709,568.783936 457.596130,567.572327 455.403809,565.913025 
	C452.202515,595.837402 438.902710,619.650085 415.217346,637.780884 
	C414.684113,637.957092 414.588684,638.199097 414.493286,638.441101 
	C414.493256,638.441101 414.412842,638.437439 414.098389,638.394653 
	C413.590668,638.674683 413.397400,638.997437 413.204102,639.320190 
	C413.204102,639.320190 413.193298,639.198975 412.882935,639.174744 
	C411.787476,639.880676 411.002380,640.610901 410.217285,641.341125 
	C410.217316,641.341125 410.153687,641.203369 409.944183,641.251343 
	C409.510010,641.593750 409.285339,641.888245 409.060669,642.182617 
	C408.679413,642.487671 408.298218,642.792725 407.300995,643.101501 
	C406.176666,643.516052 405.668335,643.926819 405.159973,644.337646 
	C405.160004,644.337646 405.146454,644.205505 404.857513,644.182251 
	C404.184265,644.608643 403.799927,645.058228 403.415588,645.507812 
	C403.415588,645.507812 403.310089,645.267090 402.951691,645.256836 
	C394.062561,647.337036 385.619171,649.959351 376.978210,651.378784 
	C366.919006,653.031189 357.089478,651.216187 347.734436,646.954529 
	C345.892151,646.115356 343.697113,646.050476 341.664764,645.628540 
	C341.664764,645.628540 341.597473,645.542969 341.573090,645.179749 
	C340.933472,644.672241 340.318237,644.527954 339.703033,644.383606 
	C339.703033,644.383606 339.924988,644.170837 339.767761,643.941772 
	C338.338501,643.201111 337.066498,642.689514 335.794495,642.177917 
	C335.794495,642.177917 335.893951,642.140137 335.790314,641.916016 
	C335.334229,641.581543 334.981781,641.471191 334.629333,641.360779 
	C334.629333,641.360779 334.807861,641.321228 334.727173,641.004089 
	C333.411652,640.136292 332.176819,639.585693 330.942017,639.035034 
	C330.942017,639.035034 330.988129,638.996521 330.861450,638.789551 
	C330.425995,638.421692 330.117218,638.260803 329.808411,638.099976 
	C329.808411,638.099976 329.930542,638.069458 329.785492,637.846680 
	C329.256744,637.458740 328.873016,637.293640 328.489288,637.128540 
	C327.722473,636.642090 326.955658,636.155640 326.046997,635.053345 
	C324.822357,633.745300 323.739502,633.053101 322.656677,632.360901 
	C322.656677,632.360901 322.702057,632.182007 322.679901,631.973206 
	C322.312683,631.616821 321.967621,631.469299 321.622559,631.321716 
	C321.622559,631.321716 321.754883,631.230896 321.703522,631.002930 
	C321.312897,630.612854 320.973663,630.450623 320.634399,630.288452 
	C320.634399,630.288452 320.761230,630.228394 320.710175,629.996460 
	C320.318451,629.605652 319.977783,629.446716 319.637115,629.287781 
	C319.637115,629.287781 319.788513,629.248413 319.724243,629.008179 
	C319.128326,628.504639 318.596649,628.241394 318.064941,627.978149 
z"/>

<!-- Central Music Note -->
<path fill="#FFFFFF" opacity="1.000000" stroke="none" 
	d="
M309.078125,476.669922 
	C285.272400,457.667511 290.762268,428.346252 308.779480,410.921722 
	C321.036987,399.067352 335.561768,391.917145 352.587769,390.669678 
	C357.587982,390.303314 362.726898,391.829498 368.231262,392.551025 
	C368.660309,392.613800 368.717377,392.626434 368.956879,392.803772 
	C369.577240,392.686340 369.958099,392.391541 370.425415,391.691101 
	C370.520233,335.544220 370.528564,279.802979 370.536896,224.061737 
	C373.431976,217.193695 378.844482,215.432007 385.358978,219.881561 
	C394.833984,226.353226 404.057373,233.197845 413.305878,239.995270 
	C423.228149,247.287933 433.105804,254.643509 442.913513,262.089417 
	C463.786346,277.935883 466.233551,310.886414 455.811707,331.319244 
	C454.838562,333.227173 453.059448,334.723969 450.918701,336.307953 
	C447.984741,323.319489 445.353790,310.618622 434.608704,301.769745 
	C424.463593,293.414948 413.069336,287.536224 399.106689,283.547577 
	C399.106689,290.793182 399.103210,297.519897 399.107269,304.246582 
	C399.130066,341.908691 398.839691,379.574524 399.286530,417.231628 
	C399.597534,443.440948 387.738220,462.280151 365.826630,476.398834 
	C364.820892,477.130402 364.335144,477.520050 363.849426,477.909729 
	C363.849426,477.909729 363.951904,477.948212 363.624695,477.968140 
	C362.984650,478.299805 362.671814,478.611572 362.358978,478.923340 
	C362.033386,478.904327 361.707764,478.885315 360.843811,479.077026 
	C358.689606,480.160614 357.073822,481.033478 355.458038,481.906342 
	C355.458038,481.906342 355.204956,481.782379 354.790833,481.875732 
	C353.852997,482.263885 353.329315,482.558746 352.805603,482.853607 
	C352.805603,482.853607 352.954681,482.880920 352.532318,482.792480 
	C348.416931,483.506683 344.723907,484.309326 341.030884,485.112000 
	C338.966980,485.072174 336.903107,485.032349 333.997864,484.997742 
	C329.779144,484.434265 326.401794,483.865601 323.024445,483.296936 
	C322.414154,483.115265 321.803833,482.933594 320.644958,482.569946 
	C319.404236,482.216705 318.712067,482.045441 318.019897,481.874176 
	C318.019897,481.874176 318.032867,481.959991 317.863281,481.694153 
	C316.880127,481.140625 316.066528,480.852905 315.252930,480.565186 
	C315.252930,480.565216 315.180634,480.702606 315.149414,480.431580 
	C314.756836,480.067780 314.395416,479.974945 314.034027,479.882141 
	C314.034027,479.882141 314.037323,479.961182 313.885956,479.708679 
	C313.175568,479.221100 312.616547,478.986053 312.057526,478.751007 
	C311.727173,478.473602 311.396851,478.196198 310.667297,477.629883 
	C309.871460,477.117310 309.474792,476.893616 309.078125,476.669922 
z"/>
</svg> 