<svg version="1.1" id="Layer_1" xmlns="http://www.w3.org/2000/svg" xmlns:xlink="http://www.w3.org/1999/xlink" x="0px" y="0px"
	 width="100%" viewBox="0 0 756 758" enable-background="new 0 0 756 758" xml:space="preserve">
<path fill="#FDFBF9" opacity="1.000000" stroke="none" 
	d="
M513.000000,759.000000 
	C342.000000,759.000000 171.500000,759.000000 1.000000,759.000000 
	C1.000000,506.333344 1.000000,253.666672 1.000000,1.000000 
	C253.000000,1.000000 505.000000,1.000000 757.000000,1.000000 
	C757.000000,253.666672 757.000000,506.333344 757.000000,759.000000 
	C675.833313,759.000000 594.666687,759.000000 513.000000,759.000000 
M314.755127,624.221619 
	C314.755127,624.221619 314.637512,624.286255 314.823761,624.799377 
	C315.124878,624.987305 315.425995,625.175232 315.817383,625.230835 
	C315.817383,625.230835 315.658142,625.212830 315.863586,625.825195 
	C316.200195,626.086731 316.536774,626.348328 316.999054,627.071106 
	C317.354340,627.373474 317.709656,627.675781 318.299652,628.501892 
	C318.777405,628.799500 319.255157,629.097107 319.788513,629.248413 
	C319.788513,629.248413 319.637115,629.287781 319.823486,629.799866 
	C320.123962,629.987915 320.424408,630.175964 320.761230,630.228394 
	C320.761230,630.228394 320.634399,630.288452 320.812622,630.799683 
	C321.106018,630.992737 321.399445,631.185791 321.754883,631.230896 
	C321.754883,631.230896 321.622559,631.321716 321.817566,631.826721 
	C322.121429,632.005981 322.425323,632.185303 322.702057,632.182007 
	C322.702057,632.182007 322.656677,632.360901 322.956665,632.908386 
	C323.949341,633.665344 324.941986,634.422363 326.188843,635.669189 
	C326.955658,636.155640 327.722473,636.642090 328.825378,637.655090 
	C329.194427,637.835144 329.563477,638.015259 329.930542,638.069458 
	C329.930542,638.069458 329.808411,638.099976 330.023071,638.602173 
	C330.341888,638.753418 330.660706,638.904663 330.988129,638.996521 
	C330.988129,638.996521 330.942017,639.035034 331.321960,639.559265 
	C332.436615,640.184998 333.551300,640.810791 334.807861,641.321228 
	C334.807861,641.321228 334.629333,641.360779 334.873810,641.853943 
	C335.209320,641.984497 335.544861,642.115051 335.893951,642.140137 
	C335.893951,642.140137 335.794495,642.177917 336.175812,642.722778 
	C337.365417,643.288452 338.555054,643.854187 339.924988,644.170837 
	C339.924988,644.170837 339.703033,644.383606 340.017578,644.833008 
	C340.508575,645.062805 340.999573,645.292603 341.597473,645.542969 
	C341.597473,645.542969 341.664764,645.628540 342.119598,646.072815 
	C362.622101,656.138062 383.039581,656.676147 403.310089,645.267090 
	C403.310089,645.267090 403.415588,645.507812 403.971863,645.347900 
	C404.403015,644.986877 404.834137,644.625916 405.146454,644.205505 
	C405.146454,644.205505 405.160004,644.337646 405.805359,644.205994 
	C406.339447,643.847046 406.873505,643.488098 407.916992,643.097717 
	C408.298218,642.792725 408.679413,642.487671 409.609131,642.045715 
	C409.841187,641.766907 410.073242,641.488098 410.153687,641.203369 
	C410.153687,641.203369 410.217316,641.341125 410.827484,641.157593 
	C411.648254,640.529419 412.468994,639.901306 413.193298,639.198975 
	C413.193298,639.198975 413.204102,639.320190 413.730408,639.181702 
	C413.949066,638.908264 414.167694,638.634827 414.412842,638.437439 
	C414.412842,638.437439 414.493256,638.441101 414.820374,638.336304 
	C414.820374,638.336304 415.008453,638.048889 415.655182,637.846619 
	C438.902710,619.650085 452.202515,595.837402 455.403809,565.913025 
	C457.596130,567.572327 459.139709,568.783936 460.726990,569.935364 
	C481.828430,585.242065 504.723846,592.814453 531.047668,587.031494 
	C559.175842,580.852173 577.035339,559.119995 582.243530,531.254272 
	C584.408020,520.892212 584.969238,510.498352 582.963562,499.240997 
	C580.600037,484.135345 574.452576,470.591370 564.969238,457.847778 
	C588.436279,456.749878 607.909546,448.405701 624.205933,432.886139 
	C644.948303,413.132568 655.132751,389.356140 648.043640,360.816559 
	C639.157227,325.040802 614.979370,304.320618 579.653442,295.916168 
	C575.091248,294.830780 570.412964,294.233459 565.207092,293.306549 
	C575.235779,279.389679 581.806824,264.720673 583.060730,247.157745 
	C583.010864,241.112503 582.960999,235.067276 583.016785,228.192383 
	C580.405579,208.357513 572.881104,190.890640 557.030457,178.114883 
	C533.790894,159.383636 492.470062,159.219604 466.498932,177.293152 
	C462.896210,179.800323 459.467102,182.556976 455.741974,185.360413 
	C451.070312,151.159561 434.719849,131.195526 415.922394,116.539551 
	C398.723572,103.129967 379.248383,96.023415 357.605347,102.270386 
	C327.697296,110.902939 307.683502,131.273361 295.989990,159.722427 
	C292.710785,167.700485 291.292694,176.443558 288.963898,185.046295 
	C287.804443,184.222778 286.556580,183.452347 285.438782,182.525085 
	C269.056274,168.934906 250.116180,163.037445 228.996582,163.905746 
	C206.101624,164.847046 187.541214,174.152069 174.563889,193.307602 
	C154.745758,222.560669 157.695648,257.430969 176.451645,286.146973 
	C178.011902,288.535767 179.611954,290.898621 181.437347,293.639679 
	C149.795654,295.828217 125.770943,309.834869 108.523354,335.205383 
	C96.149940,353.406158 90.993774,373.640106 97.310760,395.015167 
	C105.185547,421.661438 123.670906,439.800903 148.709335,450.772949 
	C158.262787,454.959351 169.011414,456.418365 179.044464,459.075073 
	C176.742249,462.472931 173.537903,466.518524 171.061996,470.969299 
	C156.740387,496.714447 157.008682,523.132385 168.558456,549.616272 
	C178.130539,571.565186 195.476196,583.577759 219.854675,587.069458 
	C228.225540,587.013672 236.596405,586.957886 245.780930,586.999939 
	C262.352295,584.704285 276.263824,576.587524 289.603912,566.068787 
	C292.380096,584.122681 296.580566,600.737122 307.327881,615.623779 
	C308.166809,616.600159 309.005737,617.576538 309.950226,619.024292 
	C310.285553,619.353943 310.620880,619.683655 311.126038,620.622559 
	C312.005920,621.505432 312.885803,622.388306 313.829041,623.170776 
	C313.829041,623.170776 313.710358,623.173523 313.861389,623.709045 
	C314.149292,623.923523 314.437164,624.137939 314.755127,624.221619 
z"/>
<path fill="#4CA34E" opacity="1.000000" stroke="none" 
	d="
M318.064941,627.978149 
	C317.709656,627.675781 317.354340,627.373474 316.865814,626.506714 
	C316.374420,625.699097 316.016296,625.455994 315.658142,625.212830 
	C315.658142,625.212830 315.817383,625.230835 315.738647,624.997314 
	C315.319092,624.604553 314.978302,624.445435 314.637512,624.286255 
	C314.637512,624.286255 314.755127,624.221619 314.713562,623.990845 
	C314.351471,623.564514 314.030914,623.369019 313.710358,623.173523 
	C313.710358,623.173523 313.829041,623.170776 313.841980,622.857849 
	C312.888672,621.701050 311.922455,620.857239 310.956207,620.013367 
	C310.620880,619.683655 310.285553,619.353943 309.918457,618.415161 
	C308.980011,616.871338 308.073303,615.936707 307.166595,615.002075 
	C296.580566,600.737122 292.380096,584.122681 289.603912,566.068787 
	C276.263824,576.587524 262.352295,584.704285 245.087189,586.679810 
	C236.517441,586.252380 228.641525,586.126892 220.765137,586.075623 
	C220.189026,586.071838 219.609421,586.605042 219.031433,586.888611 
	C195.476196,583.577759 178.130539,571.565186 168.558456,549.616272 
	C157.008682,523.132385 156.740387,496.714447 171.061996,470.969299 
	C173.537903,466.518524 176.742249,462.472931 179.044464,459.075073 
	C169.011414,456.418365 158.262787,454.959351 148.709335,450.772949 
	C123.670906,439.800903 105.185547,421.661438 97.310760,395.015167 
	C90.993774,373.640106 96.149940,353.406158 108.523354,335.205383 
	C125.770943,309.834869 149.795654,295.828217 181.437347,293.639679 
	C179.611954,290.898621 178.011902,288.535767 176.451645,286.146973 
	C157.695648,257.430969 154.745758,222.560669 174.563889,193.307602 
	C187.541214,174.152069 206.101624,164.847046 228.996582,163.905746 
	C250.116180,163.037445 269.056274,168.934906 285.438782,182.525085 
	C286.556580,183.452347 287.804443,184.222778 288.963898,185.046295 
	C291.292694,176.443558 292.710785,167.700485 295.989990,159.722427 
	C307.683502,131.273361 327.697296,110.902939 357.605347,102.270386 
	C379.248383,96.023415 398.723572,103.129967 415.922394,116.539551 
	C434.719849,131.195526 451.070312,151.159561 455.741974,185.360413 
	C459.467102,182.556976 462.896210,179.800323 466.498932,177.293152 
	C492.470062,159.219604 533.790894,159.383636 557.030457,178.114883 
	C572.881104,190.890640 580.405579,208.357513 582.686707,228.914093 
	C582.540405,235.751190 582.724182,241.866577 582.907898,247.981949 
	C581.806824,264.720673 575.235779,279.389679 565.207092,293.306549 
	C570.412964,294.233459 575.091248,294.830780 579.653442,295.916168 
	C614.979370,304.320618 639.157227,325.040802 648.043640,360.816559 
	C655.132751,389.356140 644.948303,413.132568 624.205933,432.886139 
	C607.909546,448.405701 588.436279,456.749878 564.969238,457.847778 
	C574.452576,470.591370 580.600037,484.135345 582.649170,499.936981 
	C582.226685,501.767975 582.030334,502.902527 582.024841,504.038025 
	C581.991150,511.027802 582.003235,518.017761 581.994263,525.007629 
	C581.991333,527.331726 581.971252,529.655762 581.958984,531.979858 
	C577.035339,559.119995 559.175842,580.852173 531.047668,587.031494 
	C504.723846,592.814453 481.828430,585.242065 460.726990,569.935364 
	C459.139709,568.783936 457.596130,567.572327 455.403809,565.913025 
	C452.202515,595.837402 438.902710,619.650085 415.217346,637.780884 
	C414.684113,637.957092 414.588684,638.199097 414.493286,638.441101 
	C414.493256,638.441101 414.412842,638.437439 414.098389,638.394653 
	C413.590668,638.674683 413.397400,638.997437 413.204102,639.320190 
	C413.204102,639.320190 413.193298,639.198975 412.882935,639.174744 
	C411.787476,639.880676 411.002380,640.610901 410.217285,641.341125 
	C410.217316,641.341125 410.153687,641.203369 409.944183,641.251343 
	C409.510010,641.593750 409.285339,641.888245 409.060669,642.182617 
	C408.679413,642.487671 408.298218,642.792725 407.300995,643.101501 
	C406.176666,643.516052 405.668335,643.926819 405.159973,644.337646 
	C405.160004,644.337646 405.146454,644.205505 404.857513,644.182251 
	C404.184265,644.608643 403.799927,645.058228 403.415588,645.507812 
	C403.415588,645.507812 403.310089,645.267090 402.951691,645.256836 
	C394.062561,647.337036 385.619171,649.959351 376.978210,651.378784 
	C366.919006,653.031189 357.089478,651.216187 347.734436,646.954529 
	C345.892151,646.115356 343.697113,646.050476 341.664764,645.628540 
	C341.664764,645.628540 341.597473,645.542969 341.573090,645.179749 
	C340.933472,644.672241 340.318237,644.527954 339.703033,644.383606 
	C339.703033,644.383606 339.924988,644.170837 339.767761,643.941772 
	C338.338501,643.201111 337.066498,642.689514 335.794495,642.177917 
	C335.794495,642.177917 335.893951,642.140137 335.790314,641.916016 
	C335.334229,641.581543 334.981781,641.471191 334.629333,641.360779 
	C334.629333,641.360779 334.807861,641.321228 334.727173,641.004089 
	C333.411652,640.136292 332.176819,639.585693 330.942017,639.035034 
	C330.942017,639.035034 330.988129,638.996521 330.861450,638.789551 
	C330.425995,638.421692 330.117218,638.260803 329.808411,638.099976 
	C329.808411,638.099976 329.930542,638.069458 329.785492,637.846680 
	C329.256744,637.458740 328.873016,637.293640 328.489288,637.128540 
	C327.722473,636.642090 326.955658,636.155640 326.046997,635.053345 
	C324.822357,633.745300 323.739502,633.053101 322.656677,632.360901 
	C322.656677,632.360901 322.702057,632.182007 322.679901,631.973206 
	C322.312683,631.616821 321.967621,631.469299 321.622559,631.321716 
	C321.622559,631.321716 321.754883,631.230896 321.703522,631.002930 
	C321.312897,630.612854 320.973663,630.450623 320.634399,630.288452 
	C320.634399,630.288452 320.761230,630.228394 320.710175,629.996460 
	C320.318451,629.605652 319.977783,629.446716 319.637115,629.287781 
	C319.637115,629.287781 319.788513,629.248413 319.724243,629.008179 
	C319.128326,628.504639 318.596649,628.241394 318.064941,627.978149 
M314.293060,480.384766 
	C314.640259,480.484100 314.987427,480.583435 315.180634,480.702606 
	C315.180634,480.702606 315.252930,480.565216 315.410767,481.275787 
	C316.312225,481.494629 317.213684,481.713470 318.032867,481.959991 
	C318.032867,481.959991 318.019897,481.874176 318.444794,482.474365 
	C319.155884,482.626984 319.866943,482.779602 321.193542,482.751923 
	C321.803833,482.933594 322.414154,483.115265 323.227478,483.983948 
	C326.806244,484.365662 330.384979,484.747406 334.839203,484.992523 
	C336.903107,485.032349 338.966980,485.072174 341.566681,485.637024 
	C345.360107,484.667847 349.153564,483.698700 352.954681,482.880920 
	C352.954681,482.880920 352.805603,482.853607 353.446747,482.880737 
	C353.966858,482.581512 354.487000,482.282318 355.204956,481.782379 
	C355.204956,481.782379 355.458038,481.906342 356.257874,481.936646 
	C357.832184,481.021637 359.406494,480.106598 361.382172,478.866302 
	C361.707764,478.885315 362.033386,478.904327 363.027557,478.775879 
	C363.341980,478.464050 363.656403,478.152222 363.951904,477.948212 
	C363.951904,477.948212 363.849426,477.909729 364.549042,477.883514 
	C365.003571,477.432098 365.458099,476.980652 366.346619,476.056915 
	C387.738220,462.280151 399.597534,443.440948 399.286530,417.231628 
	C398.839691,379.574524 399.130066,341.908691 399.107269,304.246582 
	C399.103210,297.519897 399.106689,290.793182 399.106689,283.547577 
	C413.069336,287.536224 424.463593,293.414948 434.608704,301.769745 
	C445.353790,310.618622 447.984741,323.319489 450.918701,336.307953 
	C453.059448,334.723969 454.838562,333.227173 455.811707,331.319244 
	C466.233551,310.886414 463.786346,277.935883 442.913513,262.089417 
	C433.105804,254.643509 423.228149,247.287933 413.305878,239.995270 
	C404.057373,233.197845 394.833984,226.353226 385.358978,219.881561 
	C378.844482,215.432007 373.431976,217.193695 369.838989,224.346786 
	C369.561829,226.246170 369.044159,228.145355 369.042572,230.044968 
	C368.999603,281.747437 369.014984,333.449951 368.993011,385.152435 
	C368.991943,387.635376 368.738953,390.118225 367.802246,392.488281 
	C362.726898,391.829498 357.587982,390.303314 352.587769,390.669678 
	C335.561768,391.917145 321.036987,399.067352 308.779480,410.921722 
	C290.762268,428.346252 285.272400,457.667511 309.376251,477.309174 
	C309.788971,477.520447 310.201691,477.731750 311.066528,477.918793 
	C311.396851,478.196198 311.727173,478.473602 312.333862,479.334320 
	C312.927063,479.536072 313.520233,479.737823 314.037323,479.961182 
	C314.037323,479.961182 314.034027,479.882141 314.293060,480.384766 
z"/>
<path fill="#509E4B" opacity="1.000000" stroke="none" 
	d="
M341.892181,645.850708 
	C343.697113,646.050476 345.892151,646.115356 347.734436,646.954529 
	C357.089478,651.216187 366.919006,653.031189 376.978210,651.378784 
	C385.619171,649.959351 394.062561,647.337036 402.973022,645.386475 
	C383.039581,656.676147 362.622101,656.138062 341.892181,645.850708 
z"/>
<path fill="#3F9339" opacity="1.000000" stroke="none" 
	d="
M582.101318,531.617065 
	C581.971252,529.655762 581.991333,527.331726 581.994263,525.007629 
	C582.003235,518.017761 581.991150,511.027802 582.024841,504.038025 
	C582.030334,502.902527 582.226685,501.767975 582.598450,500.342285 
	C584.969238,510.498352 584.408020,520.892212 582.101318,531.617065 
z"/>
<path fill="#449B40" opacity="1.000000" stroke="none" 
	d="
M219.443054,586.979004 
	C219.609421,586.605042 220.189026,586.071838 220.765137,586.075623 
	C228.641525,586.126892 236.517441,586.252380 244.680359,586.630859 
	C236.596405,586.957886 228.225540,587.013672 219.443054,586.979004 
z"/>
<path fill="#4E9D4A" opacity="1.000000" stroke="none" 
	d="
M582.984314,247.569855 
	C582.724182,241.866577 582.540405,235.751190 582.633911,229.328918 
	C582.960999,235.067276 583.010864,241.112503 582.984314,247.569855 
z"/>
<path fill="#509E4B" opacity="1.000000" stroke="none" 
	d="
M322.806671,632.634644 
	C323.739502,633.053101 324.822357,633.745300 325.919922,634.808411 
	C324.941986,634.422363 323.949341,633.665344 322.806671,632.634644 
z"/>
<path fill="#509E4B" opacity="1.000000" stroke="none" 
	d="
M311.041138,620.317993 
	C311.922455,620.857239 312.888672,621.701050 313.810303,622.908081 
	C312.885803,622.388306 312.005920,621.505432 311.041138,620.317993 
z"/>
<path fill="#509E4B" opacity="1.000000" stroke="none" 
	d="
M331.131989,639.297119 
	C332.176819,639.585693 333.411652,640.136292 334.656189,641.061768 
	C333.551300,640.810791 332.436615,640.184998 331.131989,639.297119 
z"/>
<path fill="#509E4B" opacity="1.000000" stroke="none" 
	d="
M307.247253,615.312927 
	C308.073303,615.936707 308.980011,616.871338 309.865723,618.179443 
	C309.005737,617.576538 308.166809,616.600159 307.247253,615.312927 
z"/>
<path fill="#509E4B" opacity="1.000000" stroke="none" 
	d="
M410.522400,641.249390 
	C411.002380,640.610901 411.787476,639.880676 412.931152,639.211792 
	C412.468994,639.901306 411.648254,640.529419 410.522400,641.249390 
z"/>
<path fill="#509E4B" opacity="1.000000" stroke="none" 
	d="
M335.985168,642.450317 
	C337.066498,642.689514 338.338501,643.201111 339.677582,644.066284 
	C338.555054,643.854187 337.365417,643.288452 335.985168,642.450317 
z"/>
<path fill="#509E4B" opacity="1.000000" stroke="none" 
	d="
M403.693726,645.427856 
	C403.799927,645.058228 404.184265,644.608643 404.916931,644.211914 
	C404.834137,644.625916 404.403015,644.986877 403.693726,645.427856 
z"/>
<path fill="#509E4B" opacity="1.000000" stroke="none" 
	d="
M318.182312,628.239990 
	C318.596649,628.241394 319.128326,628.504639 319.696472,629.081299 
	C319.255157,629.097107 318.777405,628.799500 318.182312,628.239990 
z"/>
<path fill="#509E4B" opacity="1.000000" stroke="none" 
	d="
M405.482666,644.271851 
	C405.668335,643.926819 406.176666,643.516052 407.046265,643.117188 
	C406.873505,643.488098 406.339447,643.847046 405.482666,644.271851 
z"/>
<path fill="#509E4B" opacity="1.000000" stroke="none" 
	d="
M339.860291,644.608276 
	C340.318237,644.527954 340.933472,644.672241 341.519653,645.169495 
	C340.999573,645.292603 340.508575,645.062805 339.860291,644.608276 
z"/>
<path fill="#509E4B" opacity="1.000000" stroke="none" 
	d="
M315.760864,625.519043 
	C316.016296,625.455994 316.374420,625.699097 316.802979,626.276062 
	C316.536774,626.348328 316.200195,626.086731 315.760864,625.519043 
z"/>
<path fill="#509E4B" opacity="1.000000" stroke="none" 
	d="
M409.334900,642.114197 
	C409.285339,641.888245 409.510010,641.593750 410.019958,641.254272 
	C410.073242,641.488098 409.841187,641.766907 409.334900,642.114197 
z"/>
<path fill="#509E4B" opacity="1.000000" stroke="none" 
	d="
M334.751587,641.607361 
	C334.981781,641.471191 335.334229,641.581543 335.783508,641.968811 
	C335.544861,642.115051 335.209320,641.984497 334.751587,641.607361 
z"/>
<path fill="#509E4B" opacity="1.000000" stroke="none" 
	d="
M413.467255,639.250977 
	C413.397400,638.997437 413.590668,638.674683 414.085144,638.356689 
	C414.167694,638.634827 413.949066,638.908264 413.467255,639.250977 
z"/>
<path fill="#509E4B" opacity="1.000000" stroke="none" 
	d="
M329.915741,638.351074 
	C330.117218,638.260803 330.425995,638.421692 330.857147,638.819214 
	C330.660706,638.904663 330.341888,638.753418 329.915741,638.351074 
z"/>
<path fill="#509E4B" opacity="1.000000" stroke="none" 
	d="
M414.656830,638.388672 
	C414.588684,638.199097 414.684113,637.957092 414.893982,637.881958 
	C415.008453,638.048889 414.820374,638.336304 414.656830,638.388672 
z"/>
<path fill="#509E4B" opacity="1.000000" stroke="none" 
	d="
M328.657349,637.391846 
	C328.873016,637.293640 329.256744,637.458740 329.786499,637.909546 
	C329.563477,638.015259 329.194427,637.835144 328.657349,637.391846 
z"/>
<path fill="#509E4B" opacity="1.000000" stroke="none" 
	d="
M321.720062,631.574219 
	C321.967621,631.469299 322.312683,631.616821 322.693481,632.064453 
	C322.425323,632.185303 322.121429,632.005981 321.720062,631.574219 
z"/>
<path fill="#509E4B" opacity="1.000000" stroke="none" 
	d="
M320.723511,630.544067 
	C320.973663,630.450623 321.312897,630.612854 321.672516,631.076965 
	C321.399445,631.185791 321.106018,630.992737 320.723511,630.544067 
z"/>
<path fill="#509E4B" opacity="1.000000" stroke="none" 
	d="
M319.730286,629.543823 
	C319.977783,629.446716 320.318451,629.605652 320.691986,630.064331 
	C320.424408,630.175964 320.123962,629.987915 319.730286,629.543823 
z"/>
<path fill="#509E4B" opacity="1.000000" stroke="none" 
	d="
M314.730652,624.542847 
	C314.978302,624.445435 315.319092,624.604553 315.693481,625.063477 
	C315.425995,625.175232 315.124878,624.987305 314.730652,624.542847 
z"/>
<path fill="#509E4B" opacity="1.000000" stroke="none" 
	d="
M313.785889,623.441284 
	C314.030914,623.369019 314.351471,623.564514 314.698547,624.056213 
	C314.437164,624.137939 314.149292,623.923523 313.785889,623.441284 
z"/>
<path fill="#FCFBF8" opacity="1.000000" stroke="none" 
	d="
M309.078125,476.669922 
	C285.272400,457.667511 290.762268,428.346252 308.779480,410.921722 
	C321.036987,399.067352 335.561768,391.917145 352.587769,390.669678 
	C357.587982,390.303314 362.726898,391.829498 368.231262,392.551025 
	C368.660309,392.613800 368.717377,392.626434 368.956879,392.803772 
	C369.577240,392.686340 369.958099,392.391541 370.425415,391.691101 
	C370.520233,335.544220 370.528564,279.802979 370.536896,224.061737 
	C373.431976,217.193695 378.844482,215.432007 385.358978,219.881561 
	C394.833984,226.353226 404.057373,233.197845 413.305878,239.995270 
	C423.228149,247.287933 433.105804,254.643509 442.913513,262.089417 
	C463.786346,277.935883 466.233551,310.886414 455.811707,331.319244 
	C454.838562,333.227173 453.059448,334.723969 450.918701,336.307953 
	C447.984741,323.319489 445.353790,310.618622 434.608704,301.769745 
	C424.463593,293.414948 413.069336,287.536224 399.106689,283.547577 
	C399.106689,290.793182 399.103210,297.519897 399.107269,304.246582 
	C399.130066,341.908691 398.839691,379.574524 399.286530,417.231628 
	C399.597534,443.440948 387.738220,462.280151 365.826630,476.398834 
	C364.820892,477.130402 364.335144,477.520050 363.849426,477.909729 
	C363.849426,477.909729 363.951904,477.948212 363.624695,477.968140 
	C362.984650,478.299805 362.671814,478.611572 362.358978,478.923340 
	C362.033386,478.904327 361.707764,478.885315 360.843811,479.077026 
	C358.689606,480.160614 357.073822,481.033478 355.458038,481.906342 
	C355.458038,481.906342 355.204956,481.782379 354.790833,481.875732 
	C353.852997,482.263885 353.329315,482.558746 352.805603,482.853607 
	C352.805603,482.853607 352.954681,482.880920 352.532318,482.792480 
	C348.416931,483.506683 344.723907,484.309326 341.030884,485.112000 
	C338.966980,485.072174 336.903107,485.032349 333.997864,484.997742 
	C329.779144,484.434265 326.401794,483.865601 323.024445,483.296936 
	C322.414154,483.115265 321.803833,482.933594 320.644958,482.569946 
	C319.404236,482.216705 318.712067,482.045441 318.019897,481.874176 
	C318.019897,481.874176 318.032867,481.959991 317.863281,481.694153 
	C316.880127,481.140625 316.066528,480.852905 315.252930,480.565186 
	C315.252930,480.565216 315.180634,480.702606 315.149414,480.431580 
	C314.756836,480.067780 314.395416,479.974945 314.034027,479.882141 
	C314.034027,479.882141 314.037323,479.961182 313.885956,479.708679 
	C313.175568,479.221100 312.616547,478.986053 312.057526,478.751007 
	C311.727173,478.473602 311.396851,478.196198 310.667297,477.629883 
	C309.871460,477.117310 309.474792,476.893616 309.078125,476.669922 
z"/>
<path fill="#379130" opacity="1.000000" stroke="none" 
	d="
M370.187927,224.204254 
	C370.528564,279.802979 370.520233,335.544220 370.000549,391.765503 
	C369.231903,392.372498 368.974640,392.499451 368.717377,392.626434 
	C368.717377,392.626434 368.660309,392.613800 368.631775,392.607452 
	C368.738953,390.118225 368.991943,387.635376 368.993011,385.152435 
	C369.014984,333.449951 368.999603,281.747437 369.042572,230.044968 
	C369.044159,228.145355 369.561829,226.246170 370.187927,224.204254 
z"/>
<path fill="#41983D" opacity="1.000000" stroke="none" 
	d="
M341.298767,485.374512 
	C344.723907,484.309326 348.416931,483.506683 352.528473,482.716797 
	C349.153564,483.698700 345.360107,484.667847 341.298767,485.374512 
z"/>
<path fill="#41983D" opacity="1.000000" stroke="none" 
	d="
M323.125977,483.640442 
	C326.401794,483.865601 329.779144,484.434265 333.560120,485.066040 
	C330.384979,484.747406 326.806244,484.365662 323.125977,483.640442 
z"/>
<path fill="#41983D" opacity="1.000000" stroke="none" 
	d="
M355.857971,481.921509 
	C357.073822,481.033478 358.689606,480.160614 360.643127,479.239685 
	C359.406494,480.106598 357.832184,481.021637 355.857971,481.921509 
z"/>
<path fill="#41983D" opacity="1.000000" stroke="none" 
	d="
M315.331848,480.920471 
	C316.066528,480.852905 316.880127,481.140625 317.904419,481.680328 
	C317.213684,481.713470 316.312225,481.494629 315.331848,480.920471 
z"/>
<path fill="#41983D" opacity="1.000000" stroke="none" 
	d="
M364.199219,477.896606 
	C364.335144,477.520050 364.820892,477.130402 365.609619,476.634979 
	C365.458099,476.980652 365.003571,477.432098 364.199219,477.896606 
z"/>
<path fill="#41983D" opacity="1.000000" stroke="none" 
	d="
M312.195679,479.042664 
	C312.616547,478.986053 313.175568,479.221100 313.924011,479.697845 
	C313.520233,479.737823 312.927063,479.536072 312.195679,479.042664 
z"/>
<path fill="#41983D" opacity="1.000000" stroke="none" 
	d="
M353.126160,482.867188 
	C353.329315,482.558746 353.852997,482.263885 354.691925,481.976074 
	C354.487000,482.282318 353.966858,482.581512 353.126160,482.867188 
z"/>
<path fill="#41983D" opacity="1.000000" stroke="none" 
	d="
M318.232361,482.174255 
	C318.712067,482.045441 319.404236,482.216705 320.337219,482.660095 
	C319.866943,482.779602 319.155884,482.626984 318.232361,482.174255 
z"/>
<path fill="#41983D" opacity="1.000000" stroke="none" 
	d="
M309.227173,476.989563 
	C309.474792,476.893616 309.871460,477.117310 310.441254,477.641998 
	C310.201691,477.731750 309.788971,477.520447 309.227173,476.989563 
z"/>
<path fill="#41983D" opacity="1.000000" stroke="none" 
	d="
M314.163544,480.133423 
	C314.395416,479.974945 314.756836,480.067780 315.226440,480.421692 
	C314.987427,480.583435 314.640259,480.484100 314.163544,480.133423 
z"/>
<path fill="#41983D" opacity="1.000000" stroke="none" 
	d="
M362.693268,478.849609 
	C362.671814,478.611572 362.984650,478.299805 363.634155,477.914215 
	C363.656403,478.152222 363.341980,478.464050 362.693268,478.849609 
z"/>
<path fill="#4CA34E" opacity="1.000000" stroke="none" 
	d="
M368.956879,392.803772 
	C368.974640,392.499451 369.231903,392.372498 369.914062,392.171143 
	C369.958099,392.391541 369.577240,392.686340 368.956879,392.803772 
z"/>
</svg>